<svg xmlns="http://www.w3.org/2000/svg" width="1254" height="1254" viewBox="0 0 1254 1254" version="1.1"><path d="M 271.576 215.578 C 266.432 217.276, 262.749 219.179, 261.076 221.002 C 250.396 232.647, 246.306 246.404, 247.287 267.389 C 248.253 288.036, 253.294 308.210, 262.120 326.748 C 264.804 332.385, 267.008 337.335, 267.018 337.748 C 267.040 338.644, 279.223 357.953, 283.500 363.871 C 294.192 378.666, 307.232 395.580, 312.889 401.994 C 320.509 410.632, 368.138 458.538, 381.551 471.054 C 392.262 481.049, 431.523 518.504, 438.077 524.978 C 442.975 529.818, 442.810 529.337, 447.548 552.500 C 459.332 610.104, 463.610 635.751, 469.982 687 C 471.589 699.925, 473.391 713.875, 473.986 718 C 474.580 722.125, 475.489 730.912, 476.005 737.527 C 478.774 773.003, 484.480 786.978, 494.750 783.438 C 497.834 782.375, 500.756 776.938, 509.223 756.500 C 518.900 733.145, 537.909 679.786, 538.034 675.630 C 538.053 675.008, 538.937 672.700, 540 670.500 C 541.063 668.300, 541.947 665.838, 541.966 665.028 C 542.027 662.370, 546.259 650, 547.108 650 C 547.564 650, 549.413 652.056, 551.218 654.570 C 553.023 657.083, 555.675 660.571, 557.111 662.320 C 558.548 664.069, 560.455 666.931, 561.350 668.679 C 562.246 670.428, 563.799 672.119, 564.802 672.437 C 565.806 672.756, 568.018 674.925, 569.718 677.258 C 575.011 684.522, 581.149 692.268, 584.130 695.449 C 585.704 697.127, 586.993 698.780, 586.995 699.123 C 586.998 699.465, 589.138 702.438, 591.750 705.729 C 598.623 714.388, 606.153 724.962, 608.321 729 C 609.355 730.925, 611.593 733.962, 613.296 735.750 C 614.999 737.538, 616.056 739, 615.645 739 C 615.234 739, 615.993 740.462, 617.331 742.250 C 620.167 746.040, 632.998 772.152, 633.004 774.146 C 633.011 776.772, 636.839 781.737, 640.647 784.060 C 642.766 785.352, 647.529 788.598, 651.231 791.271 C 658.093 796.227, 661.799 797.248, 665.582 795.224 C 670.478 792.604, 671.018 786.361, 666.987 779 C 665.933 777.075, 663.933 773.025, 662.543 770 C 661.152 766.975, 659.250 763.150, 658.315 761.500 C 657.379 759.850, 654.895 755.140, 652.794 751.033 C 650.693 746.926, 648.302 743.189, 647.480 742.729 C 644.998 741.340, 638.002 725.856, 638.001 721.750 C 638 720.788, 637.520 720, 636.933 720 C 636.345 720, 636.132 719.160, 636.458 718.132 C 636.875 716.819, 636.260 715.745, 634.391 714.521 C 631.864 712.865, 631.760 712.471, 632.306 706.627 C 633.459 694.275, 634.206 693.951, 649.578 699.132 C 656.135 701.341, 662.400 703.711, 663.500 704.397 C 665.472 705.628, 682.237 712.376, 691 715.467 C 698.243 718.021, 707.761 718.502, 714.175 716.638 C 720.814 714.708, 725.092 710.736, 728.693 703.160 C 730.982 698.343, 731.190 696.897, 730.819 688.410 C 730.593 683.234, 730.515 679, 730.647 679 C 730.778 679, 732.416 679.903, 734.285 681.006 C 740.223 684.509, 751.693 688, 757.231 687.990 C 763.186 687.979, 771.185 684.717, 774.657 680.882 C 778.282 676.879, 781.103 670.410, 781.661 664.819 C 782.142 660.008, 780.610 650.698, 778.524 645.750 C 777.903 644.278, 778.337 644, 781.253 644 C 785.125 644, 791.090 640.496, 795 635.924 L 797.500 633.001 807.264 649.896 C 812.635 659.188, 820.510 671.667, 824.764 677.628 C 829.019 683.589, 839.700 699.074, 848.500 712.040 C 857.300 725.006, 866.895 738.736, 869.822 742.552 L 875.145 749.489 862.743 761.495 C 855.921 768.098, 847.442 776.200, 843.900 779.500 C 837.166 785.774, 822.885 797, 821.638 797 C 821.240 797, 818.571 798.763, 815.707 800.918 C 812.843 803.073, 808.475 805.622, 806 806.584 C 800.782 808.610, 796.635 811.334, 793.044 815.092 C 791.645 816.557, 787.931 818.755, 784.791 819.977 C 779.943 821.864, 778.774 822.835, 777.041 826.415 C 774.556 831.549, 774.543 832.203, 776.799 838.493 C 778.964 844.528, 781.736 846.299, 787.841 845.548 C 792.723 844.947, 800.447 841.793, 803.357 839.212 C 804.419 838.270, 807.185 834.909, 809.504 831.742 C 815.150 824.032, 822.520 816.267, 828.244 812 C 830.826 810.075, 832.952 807.911, 832.969 807.191 C 832.986 806.471, 833.413 806.137, 833.918 806.449 C 834.423 806.762, 838.157 803.301, 842.214 798.758 C 848.217 792.039, 863.823 776.708, 870.131 771.334 C 870.884 770.692, 873.721 767.880, 876.435 765.084 C 879.149 762.288, 881.687 760, 882.074 760 C 883.347 760, 915.295 804.641, 918.415 810.780 C 920.075 814.046, 920.069 814.071, 917.041 816.619 C 915.369 818.026, 914 820.013, 914 821.033 C 914 824.470, 918.187 827.957, 923.469 828.919 C 929.211 829.964, 930.703 831.475, 935.606 841.211 C 937.465 844.902, 939.859 848.390, 940.927 848.961 C 944.221 850.724, 947.956 850.135, 950.664 847.427 C 953.976 844.115, 953.500 840.778, 948.463 832 C 946.411 828.425, 943.164 822.350, 941.247 818.500 C 939.330 814.650, 935.002 808.082, 931.631 803.905 C 928.259 799.728, 923.925 794.171, 922 791.557 C 920.075 788.942, 916.576 784.260, 914.225 781.151 C 910.097 775.694, 907.698 772.275, 899.064 759.539 C 896.590 755.890, 895.381 753.219, 895.947 752.653 C 896.513 752.087, 896.309 751.166, 895.420 750.278 C 894.152 749.009, 894.346 748.351, 896.958 745.053 C 899.415 741.951, 900.781 741.165, 904.633 740.637 C 907.310 740.270, 910.756 738.898, 912.673 737.436 C 916.054 734.857, 924 724.858, 924 723.183 C 924 722.686, 925.161 721.430, 926.579 720.390 C 933.006 715.680, 934.634 705.772, 929.530 702.428 C 923.036 698.173, 916.895 701.065, 907.917 712.608 C 903.212 718.658, 886.081 738.832, 885.171 739.394 C 884.663 739.708, 882.969 738.060, 881.406 735.732 C 879.843 733.405, 876.901 729.639, 874.867 727.364 C 872.834 725.090, 870.400 721.715, 869.460 719.864 C 868.520 718.014, 866.331 714.700, 864.595 712.500 C 862.860 710.300, 858.980 704.675, 855.974 700 C 852.967 695.325, 847.468 687.159, 843.754 681.854 C 840.039 676.549, 837 671.943, 837 671.619 C 837 671.295, 833.400 665.111, 829 657.877 C 824.600 650.643, 821 644.507, 821 644.243 C 821 643.978, 819.388 641.108, 817.418 637.865 C 815.448 634.622, 810.715 625.788, 806.900 618.234 C 803.086 610.680, 800.219 605.625, 800.530 607 C 800.937 608.798, 800.833 609.079, 800.163 608 C 799.649 607.175, 798.897 604.925, 798.490 603 C 796.491 593.536, 784.117 576.643, 777.185 573.912 C 772.854 572.206, 769.041 572.853, 766.355 575.750 C 762.594 579.806, 763.534 584.364, 769.757 592.236 C 772.479 595.681, 777.743 602.966, 781.453 608.425 C 787.786 617.741, 788.160 618.600, 787.549 622.425 C 786.537 628.766, 784.611 631, 780.157 631 C 777.352 631, 775.483 630.217, 773 628 C 768.921 624.358, 765.716 624.193, 762.455 627.455 C 759.479 630.430, 759.301 634.341, 761.942 638.673 C 763.006 640.418, 764.538 644.073, 765.346 646.795 C 766.155 649.517, 767.532 653.129, 768.408 654.822 C 771.591 660.977, 769.553 670.097, 764.212 673.597 C 760.987 675.710, 754.542 675.717, 749.941 673.613 C 748.048 672.747, 744.025 670.215, 741 667.987 C 736.278 664.508, 734.951 663.999, 731.620 664.390 C 728.275 664.782, 727.401 664.441, 725.281 661.922 C 722.121 658.167, 718.211 658.062, 714.636 661.636 C 711.338 664.935, 711.329 667.423, 714.587 675.270 C 717.987 683.458, 718.813 692.485, 716.590 697.169 C 713.797 703.054, 704.951 705.788, 698.907 702.635 C 697.481 701.890, 694.562 700.953, 692.421 700.551 C 687.489 699.626, 676.358 695.130, 663.400 688.829 C 651.773 683.176, 639.205 680.292, 631.336 681.472 C 622.365 682.818, 616.748 691.324, 616.624 703.750 C 616.595 706.638, 616.482 709, 616.372 709 C 615.732 709, 602.836 692.761, 600.489 689 C 598.944 686.525, 595.133 681.575, 592.020 678 C 588.907 674.425, 584.665 669.138, 582.595 666.250 C 580.524 663.362, 578.490 661, 578.075 661 C 577.660 661, 576.809 659.877, 576.184 658.505 C 575.559 657.133, 571.756 652.070, 567.733 647.255 C 563.710 642.440, 558.706 636.075, 556.612 633.112 C 552.382 627.125, 552.388 628.107, 556.479 613.500 C 563.380 588.856, 578.100 525.976, 579.420 515.500 C 579.698 513.300, 580.878 507.225, 582.044 502 C 584.241 492.153, 584.499 490.830, 587.825 472.428 C 592.815 444.821, 595.297 434, 596.642 434 C 597.389 434, 598 433.298, 598 432.441 C 598 431.584, 598.450 431.160, 599 431.500 C 599.550 431.840, 600.051 431.304, 600.114 430.309 C 600.177 429.314, 600.382 427.166, 600.571 425.535 C 600.759 423.904, 600.514 420.791, 600.025 418.617 C 599.382 415.753, 599.549 413.453, 600.633 410.260 C 601.456 407.837, 602.354 403.985, 602.629 401.701 C 603.147 397.403, 604.645 394.662, 606.013 395.508 C 607.289 396.297, 613.032 389.089, 613.671 385.897 C 613.994 384.281, 614.720 382.673, 615.284 382.325 C 615.916 381.934, 615.999 382.193, 615.500 383 C 614.961 383.873, 615.081 384.068, 615.862 383.585 C 616.506 383.187, 616.774 382.444, 616.458 381.933 C 615.698 380.703, 618.466 376.799, 619.421 377.754 C 619.829 378.162, 619.865 377.147, 619.500 375.498 C 618.999 373.227, 619.097 372.864, 619.904 374 C 620.741 375.178, 620.969 374.749, 620.969 372 C 620.969 369.375, 620.727 368.875, 620 370 C 619.214 371.217, 619.028 371.082, 619.015 369.285 C 619.007 368.066, 617.660 365.544, 616.023 363.679 C 614.385 361.814, 613.260 360.073, 613.523 359.811 C 613.785 359.548, 613.438 359.251, 612.750 359.151 C 602.201 357.612, 603.260 357.324, 597.588 363.274 C 590.649 370.554, 588.324 378.781, 586.506 402.500 C 585.760 412.230, 583.361 431.674, 581.509 443 C 580.655 448.225, 579.511 455.425, 578.968 459 C 578.425 462.575, 577.117 470, 576.062 475.500 C 573.500 488.858, 570.152 507.556, 569.438 512.500 C 569.120 514.700, 568.255 518.975, 567.515 522 C 566.775 525.025, 565.852 529.525, 565.465 532 C 565.077 534.475, 563.468 542.252, 561.889 549.282 C 560.310 556.312, 558.771 563.512, 558.470 565.282 C 557.083 573.436, 545.501 616.270, 544.217 617.992 C 544.015 618.262, 543.468 617.812, 543 616.992 C 541.065 613.593, 525.105 594.429, 516.409 585.062 C 513.058 581.453, 508.654 575.952, 506.620 572.839 C 504.587 569.725, 500.396 565.018, 497.307 562.379 C 494.217 559.740, 490.522 555.746, 489.095 553.505 C 486.477 549.394, 481.474 543.225, 472.750 533.354 C 470.137 530.398, 468 527.061, 468 525.940 C 468 522.737, 465.153 517.939, 459.981 512.427 C 457.363 509.636, 454.243 505.437, 453.049 503.096 C 451.854 500.754, 448.880 496.125, 446.438 492.809 C 443.997 489.493, 442 486.099, 442 485.266 C 442 483.309, 428.159 427.001, 422.884 407.500 C 411.395 365.023, 400.348 335.341, 385.428 306.865 C 384.093 304.315, 383 301.685, 383 301.020 C 383 300.355, 380.975 296.793, 378.500 293.104 C 376.025 289.415, 374 286.012, 374 285.543 C 374 285.073, 372.762 283.072, 371.250 281.096 C 369.738 279.121, 366.875 274.997, 364.889 271.934 C 356.674 259.260, 331.161 231.530, 324.468 228 C 322.904 227.175, 320.607 225.490, 319.364 224.257 C 316.296 221.211, 303.422 215.219, 298.500 214.545 C 285.142 212.717, 279.600 212.930, 271.576 215.578 M 277.181 226.072 C 275.355 226.634, 271.454 229.435, 268.512 232.297 C 264.352 236.342, 263.025 238.390, 262.546 241.500 C 262.207 243.700, 261.225 248.732, 260.364 252.683 C 259.456 256.847, 259.030 261.890, 259.351 264.683 C 260.390 273.744, 262.198 284.498, 264.196 293.500 C 265.295 298.450, 266.331 303.193, 266.499 304.039 C 267.118 307.162, 273.600 321.816, 279.089 332.500 C 286.765 347.441, 293.488 357.831, 304.624 371.958 C 307.992 376.231, 311.142 380.417, 311.624 381.260 C 313.259 384.123, 335.190 408.442, 347.873 421.457 C 361.253 435.188, 383.269 456.638, 396.522 468.855 C 400.910 472.900, 410.511 482.125, 417.858 489.355 C 432.362 503.627, 433.748 503.268, 420.581 488.650 C 416.047 483.618, 410.890 477.475, 409.120 475 C 407.349 472.525, 402.534 467.045, 398.419 462.821 C 385.806 449.875, 383.449 446.610, 383.258 441.813 C 383.131 438.622, 383.728 436.734, 385.671 434.186 C 387.936 431.218, 388.639 430.883, 391.377 431.469 C 393.095 431.836, 395.625 432.336, 397 432.579 C 402.961 433.633, 403.807 434.119, 405.097 437.235 C 405.840 439.028, 408.485 442.522, 410.974 444.998 C 413.463 447.474, 417.896 453.029, 420.824 457.343 C 423.752 461.656, 426.342 464.991, 426.581 464.753 C 426.819 464.515, 425.625 459.185, 423.928 452.910 C 422.231 446.634, 420.403 439.700, 419.866 437.500 C 419.329 435.300, 417.957 429.675, 416.819 425 C 411.348 402.539, 401.251 371.460, 392.290 349.500 C 380.794 321.327, 370.800 302.390, 356.106 280.936 C 345.031 264.767, 344.073 263.606, 340.126 261.565 C 338.311 260.626, 336.077 258.484, 335.163 256.803 C 332.351 251.637, 328.972 248.057, 323.116 244.040 C 320.027 241.922, 316.727 239.258, 315.783 238.122 C 314.839 236.985, 312.814 235.756, 311.283 235.390 C 309.752 235.024, 306.631 233.217, 304.346 231.374 C 302.061 229.531, 298.967 227.558, 297.469 226.988 C 293.450 225.460, 280.999 224.898, 277.181 226.072 M 455.543 545.069 C 456.837 547.163, 464.683 587.059, 470.378 620.500 C 472.556 633.292, 473.150 636.434, 473.496 636.994 C 473.714 637.346, 474.358 641.429, 474.927 646.067 C 475.496 650.705, 476.852 660.575, 477.939 668 C 480.847 687.856, 487.173 738.626, 488.468 752.500 C 489.519 763.762, 491.390 767.108, 494.219 762.787 C 497.453 757.848, 507.091 735.741, 512.251 721.426 C 522.072 694.181, 536.812 647.703, 537.599 641.500 C 538.075 637.750, 537.682 636.977, 531.303 629.116 C 527.561 624.504, 523.837 619.779, 523.028 618.616 C 520.442 614.901, 507.339 599.574, 504.975 597.500 C 503.722 596.400, 500.049 592.188, 496.813 588.140 C 485.018 573.385, 457.681 544, 455.749 544 C 455.272 544, 455.179 544.481, 455.543 545.069 M 986.190 665.975 C 978.528 670.763, 977.896 683.826, 985.145 687.575 C 989.575 689.866, 994.226 689.343, 998.782 686.043 C 1002.210 683.560, 1002.974 682.355, 1003.548 678.529 C 1004.768 670.395, 1001.391 665.682, 993.500 664.504 C 990.451 664.049, 988.713 664.399, 986.190 665.975" stroke="none" fill="#edbf32" fill-rule="evenodd"/></svg>